<?xml version="1.0" encoding="utf-8"?>
<svg version="1.1" id="图层_1" xmlns="http://www.w3.org/2000/svg" xmlns:xlink="http://www.w3.org/1999/xlink" x="0px" y="0px"
	 viewBox="0 0 200 200" style="enable-background:new 0 0 200 200;" xml:space="preserve">
<style type="text/css">
	.st0{fill:#FFFFFF;}
	.st1{fill:#33A14A;}
</style>
<path class="st0" d="M148.3,37.5c-0.8,0-1.7,0-1.7-0.8C130.8,28.3,116.7,25,100,25s-32.5,4.2-46.7,11.7c-1.7,0.8-4.2,0-5.8-1.7
	c-0.8-1.7,0-4.2,2.5-5.8c15-8.3,32.5-12.5,50-12.5s33.3,4.2,50,12.5c1.7,0.8,2.5,3.3,1.7,5.8C151.7,36.7,150,37.5,148.3,37.5z
	 M29.2,80.8c-0.8,0-1.7,0-2.5-0.8c-1.7-0.8-2.5-3.3-0.8-5.8c8.3-11.7,18.3-20.8,31.7-27.5c25.8-13.3,59.2-13.3,85.8,0
	c12.5,6.7,23.3,15.8,31.7,26.7c1.7,1.7,0.8,4.2-0.8,5.8c-1.7,1.7-4.2,0.8-5.8-0.8C160.8,67.5,151.7,60,140,54.2
	c-24.2-12.5-54.2-12.5-78.3,0C50,60,40.8,68.3,33.3,79.2C31.7,80,30.8,80.8,29.2,80.8z M81.7,181.7c-0.8,0-2.5-0.8-2.5-1.7
	c-7.5-7.5-10.8-11.7-16.7-21.7s-9.2-22.5-9.2-35.8c0-25,20.8-45,47.5-45s47.5,20,47.5,45c0,2.5-1.7,4.2-4.2,4.2s-4.2-1.7-4.2-4.2
	c0-20-17.5-36.7-39.2-36.7s-39.2,16.7-39.2,36.7c0,11.7,2.5,23.3,7.5,31.7c5,9.2,9.2,13.3,15,20c1.7,1.7,1.7,4.2,0,5.8
	C83.3,180.8,82.5,181.7,81.7,181.7L81.7,181.7z M140.8,165.8c-10,0-18.3-2.5-25.8-7.5c-12.5-8.3-20-21.7-20-36.7
	c0-2.5,1.7-4.2,4.2-4.2s4.2,1.7,4.2,4.2c0,11.7,5.8,22.5,15.8,30c5.8,4.2,12.5,5.8,20.8,5.8c1.7,0,5,0,8.3-0.8c2.5,0,4.2,0.8,5,3.3
	c0,2.5-0.8,4.2-3.3,5C146.7,165.8,142.5,165.8,140.8,165.8L140.8,165.8z M124.2,183.3h-0.8c-13.3-3.3-21.7-8.3-30.8-17.5
	c-11.7-11.7-18.3-26.7-18.3-43.3c0-13.3,11.7-24.2,25.8-24.2s25.8,10.8,25.8,24.2c0,9.2,7.5,15.8,17.5,15.8s17.5-7.5,17.5-15.8
	c0-31.7-27.5-56.7-60.8-56.7c-23.3,0-45,13.3-55,33.3c-3.3,6.7-5,15-5,23.3c0,6.7,0.8,16.7,5.8,30c0.8,2.5,0,4.2-2.5,5
	c-2.5,0.8-5,0-5-2.5c-4.2-10.8-5.8-21.7-5.8-33.3c0-10,1.7-19.2,5.8-26.7c10-23.3,34.2-38.3,61.7-38.3c38.3,0,69.2,29.2,69.2,65
	c0,13.3-11.7,24.2-25.8,24.2s-25.8-10.8-25.8-24.2c0-9.2-7.5-15.8-17.5-15.8s-17.5,7.5-17.5,15.8c0,14.2,5.8,27.5,15.8,37.5
	c7.5,7.5,15.8,12.5,27.5,15.8c2.5,0.8,3.3,3.3,2.5,5C127.5,181.7,125.8,183.3,124.2,183.3L124.2,183.3z"/>
<path class="st1" d="M148.3,37.5c-0.8,0-1.7,0-1.7-0.8C130.8,28.3,116.7,25,100,25s-32.5,4.2-46.7,11.7c-1.7,0.8-4.2,0-5.8-1.7
	c-0.8-1.7,0-4.2,2.5-5.8c15-8.3,32.5-12.5,50-12.5s33.3,4.2,50,12.5c1.7,0.8,2.5,3.3,1.7,5.8C151.7,36.7,150,37.5,148.3,37.5z
	 M29.2,80.8c-0.8,0-1.7,0-2.5-0.8c-1.7-0.8-2.5-3.3-0.8-5.8c8.3-11.7,18.3-20.8,31.7-27.5c25.8-13.3,59.2-13.3,85.8,0
	c12.5,6.7,23.3,15.8,31.7,26.7c1.7,1.7,0.8,4.2-0.8,5.8c-1.7,1.7-4.2,0.8-5.8-0.8C160.8,67.5,151.7,60,140,54.2
	c-24.2-12.5-54.2-12.5-78.3,0C50,60,40.8,68.3,33.3,79.2C31.7,80,30.8,80.8,29.2,80.8z M81.7,181.7c-0.8,0-2.5-0.8-2.5-1.7
	c-7.5-7.5-10.8-11.7-16.7-21.7s-9.2-22.5-9.2-35.8c0-25,20.8-45,47.5-45s47.5,20,47.5,45c0,2.5-1.7,4.2-4.2,4.2s-4.2-1.7-4.2-4.2
	c0-20-17.5-36.7-39.2-36.7s-39.2,16.7-39.2,36.7c0,11.7,2.5,23.3,7.5,31.7c5,9.2,9.2,13.3,15,20c1.7,1.7,1.7,4.2,0,5.8
	C83.3,180.8,82.5,181.7,81.7,181.7L81.7,181.7z M140.8,165.8c-10,0-18.3-2.5-25.8-7.5c-12.5-8.3-20-21.7-20-36.7
	c0-2.5,1.7-4.2,4.2-4.2s4.2,1.7,4.2,4.2c0,11.7,5.8,22.5,15.8,30c5.8,4.2,12.5,5.8,20.8,5.8c1.7,0,5,0,8.3-0.8c2.5,0,4.2,0.8,5,3.3
	c0,2.5-0.8,4.2-3.3,5C146.7,165.8,142.5,165.8,140.8,165.8L140.8,165.8z M124.2,183.3h-0.8c-13.3-3.3-21.7-8.3-30.8-17.5
	c-11.7-11.7-18.3-26.7-18.3-43.3c0-13.3,11.7-24.2,25.8-24.2s25.8,10.8,25.8,24.2c0,9.2,7.5,15.8,17.5,15.8s17.5-7.5,17.5-15.8
	c0-31.7-27.5-56.7-60.8-56.7c-23.3,0-45,13.3-55,33.3c-3.3,6.7-5,15-5,23.3c0,6.7,0.8,16.7,5.8,30c0.8,2.5,0,4.2-2.5,5
	c-2.5,0.8-5,0-5-2.5c-4.2-10.8-5.8-21.7-5.8-33.3c0-10,1.7-19.2,5.8-26.7c10-23.3,34.2-38.3,61.7-38.3c38.3,0,69.2,29.2,69.2,65
	c0,13.3-11.7,24.2-25.8,24.2s-25.8-10.8-25.8-24.2c0-9.2-7.5-15.8-17.5-15.8s-17.5,7.5-17.5,15.8c0,14.2,5.8,27.5,15.8,37.5
	c7.5,7.5,15.8,12.5,27.5,15.8c2.5,0.8,3.3,3.3,2.5,5C127.5,181.7,125.8,183.3,124.2,183.3L124.2,183.3z"/>
</svg>
